<svg xmlns="http://www.w3.org/2000/svg" width="1000" height="1000"><style>@media (prefers-color-scheme:dark){#light-icon{display:none}#dark-icon{display:inline}}</style><svg xmlns="http://www.w3.org/2000/svg" xmlns:svgjs="http://svgjs.com/svgjs" xmlns:xlink="http://www.w3.org/1999/xlink" width="1000" height="1000" style="display:inline"><rect width="1000" height="1000" fill="#10172a" rx="200" ry="200"/><svg xmlns="http://www.w3.org/2000/svg" xmlns:svgjs="http://svgjs.com/svgjs" xmlns:xlink="http://www.w3.org/1999/xlink" width="512" height="512" transform="translate(100 100) scale(1.5625)"><svg xmlns="http://www.w3.org/2000/svg" width="512" height="512" fill="none" viewBox="0 0 512 512"><rect width="512" height="512" fill="#10172A" rx="42.65"/><path fill="#EAEDF3" d="M147.1 395.844c-15.445 0-28.719-2.896-39.82-8.688-11.101-6.033-20.272-14.601-27.512-25.702-7.24-11.101-12.55-24.737-15.928-40.906-3.379-16.169-5.068-34.631-5.068-55.386 0-20.513 1.69-38.855 5.068-55.024 3.379-16.411 8.688-30.167 15.928-41.268 7.24-11.101 16.41-19.548 27.512-25.34 11.101-6.033 24.375-9.05 39.82-9.05s28.719 3.017 39.82 9.05c11.101 5.792 20.272 14.239 27.512 25.34 7.24 11.101 12.549 24.857 15.928 41.268 3.379 16.169 5.068 34.511 5.068 55.024 0 20.755-1.689 39.217-5.068 55.386-3.379 16.169-8.688 29.805-15.928 40.906-7.24 11.101-16.411 19.669-27.512 25.702-11.101 5.792-24.375 8.688-39.82 8.688Zm0-26.426c10.136 0 18.703-1.931 25.702-5.792 6.999-4.103 12.791-9.774 17.376-17.014 4.585-7.24 7.843-15.928 9.774-26.064 2.172-10.377 3.258-21.961 3.258-34.752v-41.268c0-12.549-1.086-24.013-3.258-34.39-1.931-10.377-5.189-19.186-9.774-26.426-4.585-7.24-10.377-12.791-17.376-16.652-6.999-4.103-15.566-6.154-25.702-6.154-10.136 0-18.703 2.051-25.702 6.154-6.999 3.861-12.791 9.412-17.376 16.652-4.585 7.24-7.964 16.049-10.136 26.426-1.93 10.377-2.896 21.841-2.896 34.39v41.268c0 12.791.965 24.375 2.896 34.752 2.172 10.136 5.55 18.824 10.136 26.064 4.585 7.24 10.377 12.911 17.376 17.014 6.999 3.861 15.566 5.792 25.702 5.792Z"/><path fill="#FF6B01" d="M363.435 395.844c-22.686 0-41.268-4.103-55.748-12.308-14.48-8.447-26.426-19.186-35.838-32.218l22.082-18.1c9.894 12.308 20.272 21.479 31.132 27.512 11.101 6.033 24.254 9.05 39.458 9.05 18.341 0 32.338-4.223 41.992-12.67 9.653-8.447 14.48-20.272 14.48-35.476 0-12.308-3.5-21.841-10.498-28.598-6.999-6.999-19.186-11.946-36.562-14.842l-28.236-4.706c-12.308-2.172-22.686-5.43-31.132-9.774-8.206-4.344-14.842-9.533-19.91-15.566-5.068-6.275-8.688-13.032-10.86-20.272-2.172-7.481-3.258-15.204-3.258-23.168 0-23.168 7.602-40.665 22.806-52.49 15.204-11.825 35.717-17.738 61.54-17.738 20.272 0 37.286 3.379 51.042 10.136 13.997 6.757 25.219 16.29 33.666 28.598l-21.358 18.462c-6.999-9.171-15.446-16.652-25.34-22.444-9.895-5.792-22.686-8.688-38.372-8.688-17.135 0-30.288 3.62-39.458 10.86-9.171 7.24-13.756 18.1-13.756 32.58 0 11.343 3.378 20.634 10.136 27.874 6.998 6.999 19.427 12.067 37.286 15.204l27.15 4.706c12.308 2.172 22.685 5.43 31.132 9.774 8.446 4.344 15.204 9.533 20.272 15.566 5.309 6.033 9.05 12.791 11.222 20.272 2.172 7.481 3.258 15.325 3.258 23.53 0 23.409-7.723 41.751-23.168 55.024-15.204 13.273-36.924 19.91-65.16 19.91Z"/></svg></svg></svg></svg>