<svg xmlns="http://www.w3.org/2000/svg" version="1.1" xmlns:xlink="http://www.w3.org/1999/xlink" xmlns:svgjs="http://svgjs.com/svgjs" width="1000" height="1000"><style>
    #light-icon {
      display: inline;
    }
    #dark-icon {
      display: none;
    }

    @media (prefers-color-scheme: dark) {
      #light-icon {
        display: none;
      }
      #dark-icon {
        display: inline;
      }
    }
  </style><g id="light-icon"><svg xmlns="http://www.w3.org/2000/svg" version="1.1" xmlns:xlink="http://www.w3.org/1999/xlink" xmlns:svgjs="http://svgjs.com/svgjs" width="1000" height="1000"><rect width="1000" height="1000" rx="200" ry="200" fill="#10172a"></rect><g transform="matrix(1.5625,0,0,1.5625,100,100)"><svg xmlns="http://www.w3.org/2000/svg" version="1.1" xmlns:xlink="http://www.w3.org/1999/xlink" xmlns:svgjs="http://svgjs.com/svgjs" width="512" height="512"><svg width="512" height="512" viewBox="0 0 512 512" fill="none" xmlns="http://www.w3.org/2000/svg">
<rect width="512" height="512" rx="42.65" fill="#10172A"></rect>
<path d="M147.1 395.844C131.655 395.844 118.381 392.948 107.28 387.156C96.1787 381.123 87.008 372.555 79.768 361.454C72.528 350.353 67.2187 336.717 63.84 320.548C60.4613 304.379 58.772 285.917 58.772 265.162C58.772 244.649 60.4613 226.307 63.84 210.138C67.2187 193.727 72.528 179.971 79.768 168.87C87.008 157.769 96.1787 149.322 107.28 143.53C118.381 137.497 131.655 134.48 147.1 134.48C162.545 134.48 175.819 137.497 186.92 143.53C198.021 149.322 207.192 157.769 214.432 168.87C221.672 179.971 226.981 193.727 230.36 210.138C233.739 226.307 235.428 244.649 235.428 265.162C235.428 285.917 233.739 304.379 230.36 320.548C226.981 336.717 221.672 350.353 214.432 361.454C207.192 372.555 198.021 381.123 186.92 387.156C175.819 392.948 162.545 395.844 147.1 395.844ZM147.1 369.418C157.236 369.418 165.803 367.487 172.802 363.626C179.801 359.523 185.593 353.852 190.178 346.612C194.763 339.372 198.021 330.684 199.952 320.548C202.124 310.171 203.21 298.587 203.21 285.796V244.528C203.21 231.979 202.124 220.515 199.952 210.138C198.021 199.761 194.763 190.952 190.178 183.712C185.593 176.472 179.801 170.921 172.802 167.06C165.803 162.957 157.236 160.906 147.1 160.906C136.964 160.906 128.397 162.957 121.398 167.06C114.399 170.921 108.607 176.472 104.022 183.712C99.4367 190.952 96.058 199.761 93.886 210.138C91.9553 220.515 90.99 231.979 90.99 244.528V285.796C90.99 298.587 91.9553 310.171 93.886 320.548C96.058 330.684 99.4367 339.372 104.022 346.612C108.607 353.852 114.399 359.523 121.398 363.626C128.397 367.487 136.964 369.418 147.1 369.418Z" fill="#EAEDF3"></path>
<path d="M363.435 395.844C340.749 395.844 322.167 391.741 307.687 383.536C293.207 375.089 281.261 364.35 271.849 351.318L293.931 333.218C303.825 345.526 314.203 354.697 325.063 360.73C336.164 366.763 349.317 369.78 364.521 369.78C382.862 369.78 396.859 365.557 406.513 357.11C416.166 348.663 420.993 336.838 420.993 321.634C420.993 309.326 417.493 299.793 410.495 293.036C403.496 286.037 391.309 281.09 373.933 278.194L345.697 273.488C333.389 271.316 323.011 268.058 314.565 263.714C306.359 259.37 299.723 254.181 294.655 248.148C289.587 241.873 285.967 235.116 283.795 227.876C281.623 220.395 280.537 212.672 280.537 204.708C280.537 181.54 288.139 164.043 303.343 152.218C318.547 140.393 339.06 134.48 364.883 134.48C385.155 134.48 402.169 137.859 415.925 144.616C429.922 151.373 441.144 160.906 449.591 173.214L428.233 191.676C421.234 182.505 412.787 175.024 402.893 169.232C392.998 163.44 380.207 160.544 364.521 160.544C347.386 160.544 334.233 164.164 325.063 171.404C315.892 178.644 311.307 189.504 311.307 203.984C311.307 215.327 314.685 224.618 321.443 231.858C328.441 238.857 340.87 243.925 358.729 247.062L385.879 251.768C398.187 253.94 408.564 257.198 417.011 261.542C425.457 265.886 432.215 271.075 437.283 277.108C442.592 283.141 446.333 289.899 448.505 297.38C450.677 304.861 451.763 312.705 451.763 320.91C451.763 344.319 444.04 362.661 428.595 375.934C413.391 389.207 391.671 395.844 363.435 395.844Z" fill="#FF6B01"></path>
</svg></svg></g></svg></g><g id="dark-icon"><svg xmlns="http://www.w3.org/2000/svg" version="1.1" xmlns:xlink="http://www.w3.org/1999/xlink" xmlns:svgjs="http://svgjs.com/svgjs" width="1000" height="1000"><rect width="1000" height="1000" rx="200" ry="200" fill="#eeeeee"></rect><g transform="matrix(1.5625,0,0,1.5625,100,100)"><svg xmlns="http://www.w3.org/2000/svg" version="1.1" xmlns:xlink="http://www.w3.org/1999/xlink" xmlns:svgjs="http://svgjs.com/svgjs" width="512" height="512"><svg width="512" height="512" viewBox="0 0 512 512" fill="none" xmlns="http://www.w3.org/2000/svg">
<rect width="512" height="512" rx="42.65" fill="#F6EEE1"></rect>
<path d="M147.1 395.844C131.655 395.844 118.381 392.948 107.28 387.156C96.1787 381.123 87.008 372.555 79.768 361.454C72.528 350.353 67.2187 336.717 63.84 320.548C60.4613 304.379 58.772 285.917 58.772 265.162C58.772 244.649 60.4613 226.307 63.84 210.138C67.2187 193.727 72.528 179.971 79.768 168.87C87.008 157.769 96.1787 149.322 107.28 143.53C118.381 137.497 131.655 134.48 147.1 134.48C162.545 134.48 175.819 137.497 186.92 143.53C198.021 149.322 207.192 157.769 214.432 168.87C221.672 179.971 226.981 193.727 230.36 210.138C233.739 226.307 235.428 244.649 235.428 265.162C235.428 285.917 233.739 304.379 230.36 320.548C226.981 336.717 221.672 350.353 214.432 361.454C207.192 372.555 198.021 381.123 186.92 387.156C175.819 392.948 162.545 395.844 147.1 395.844ZM147.1 369.418C157.236 369.418 165.803 367.487 172.802 363.626C179.801 359.523 185.593 353.852 190.178 346.612C194.763 339.372 198.021 330.684 199.952 320.548C202.124 310.171 203.21 298.587 203.21 285.796V244.528C203.21 231.979 202.124 220.515 199.952 210.138C198.021 199.761 194.763 190.952 190.178 183.712C185.593 176.472 179.801 170.921 172.802 167.06C165.803 162.957 157.236 160.906 147.1 160.906C136.964 160.906 128.397 162.957 121.398 167.06C114.399 170.921 108.607 176.472 104.022 183.712C99.4367 190.952 96.058 199.761 93.886 210.138C91.9553 220.515 90.99 231.979 90.99 244.528V285.796C90.99 298.587 91.9553 310.171 93.886 320.548C96.058 330.684 99.4367 339.372 104.022 346.612C108.607 353.852 114.399 359.523 121.398 363.626C128.397 367.487 136.964 369.418 147.1 369.418Z" fill="#10172A"></path>
<path d="M363.435 395.844C340.749 395.844 322.167 391.741 307.687 383.536C293.207 375.089 281.261 364.35 271.849 351.318L293.931 333.218C303.825 345.526 314.203 354.697 325.063 360.73C336.164 366.763 349.317 369.78 364.521 369.78C382.862 369.78 396.859 365.557 406.513 357.11C416.166 348.663 420.993 336.838 420.993 321.634C420.993 309.326 417.493 299.793 410.495 293.036C403.496 286.037 391.309 281.09 373.933 278.194L345.697 273.488C333.389 271.316 323.011 268.058 314.565 263.714C306.359 259.37 299.723 254.181 294.655 248.148C289.587 241.873 285.967 235.116 283.795 227.876C281.623 220.395 280.537 212.672 280.537 204.708C280.537 181.54 288.139 164.043 303.343 152.218C318.547 140.393 339.06 134.48 364.883 134.48C385.155 134.48 402.169 137.859 415.925 144.616C429.922 151.373 441.144 160.906 449.591 173.214L428.233 191.676C421.234 182.505 412.787 175.024 402.893 169.232C392.998 163.44 380.207 160.544 364.521 160.544C347.386 160.544 334.233 164.164 325.063 171.404C315.892 178.644 311.307 189.504 311.307 203.984C311.307 215.327 314.685 224.618 321.443 231.858C328.441 238.857 340.87 243.925 358.729 247.062L385.879 251.768C398.187 253.94 408.564 257.198 417.011 261.542C425.457 265.886 432.215 271.075 437.283 277.108C442.592 283.141 446.333 289.899 448.505 297.38C450.677 304.861 451.763 312.705 451.763 320.91C451.763 344.319 444.04 362.661 428.595 375.934C413.391 389.207 391.671 395.844 363.435 395.844Z" fill="#FF6B01"></path>
</svg></svg></g></svg></g></svg>